<?xml version="1.0" encoding="UTF-8" standalone="no"?>
<svg
   id="templatesarea.com"
   width="550"
   height="482.04"
   viewBox="0 0 550 482.04"
   version="1.1"
   sodipodi:docname="adorable-octopus-svg-cut-file-free-ready-for-download.svg"
   inkscape:version="1.2.1 (9c6d41e410, 2022-07-14)"
   xmlns:inkscape="http://www.inkscape.org/namespaces/inkscape"
   xmlns:sodipodi="http://sodipodi.sourceforge.net/DTD/sodipodi-0.dtd"
   xmlns="http://www.w3.org/2000/svg"
   xmlns:svg="http://www.w3.org/2000/svg"
   xmlns:rdf="http://www.w3.org/1999/02/22-rdf-syntax-ns#"
   xmlns:cc="http://creativecommons.org/ns#"
   xmlns:dc="http://purl.org/dc/elements/1.1/">
  <title
     id="title272">Adorable Octopus SVG Cut File: Free &amp; Ready for Download</title>
  <defs
     id="defs164" />
  <sodipodi:namedview
     id="namedview162"
     pagecolor="#ffffff"
     bordercolor="#000000"
     borderopacity="0.25"
     inkscape:showpageshadow="2"
     inkscape:pageopacity="0.0"
     inkscape:pagecheckerboard="0"
     inkscape:deskcolor="#d1d1d1"
     showgrid="false"
     inkscape:zoom="1.6886565"
     inkscape:cx="260.56217"
     inkscape:cy="241.3161"
     inkscape:window-width="1920"
     inkscape:window-height="1001"
     inkscape:window-x="-9"
     inkscape:window-y="-9"
     inkscape:window-maximized="1"
     inkscape:current-layer="templatesarea.com" />
  <g
     id="SPLINE">
    <g
       id="g138">
      <g
         id="g6">
        <path
           d="m380.23,398.91c3.19.21,6.12-2.46,6.31-5.73.18-3.3-2.38-6.16-5.68-6.34l.22-2.98c8.34.61,16.67,1.29,24.97,2.17,13.33,1.42,25.83,5.62,35.79,15.31,9.03,8.79,11.92,21.42,7.52,32.6-1.07,2.7-2.62,5.09-4.61,7.17-1.54,1.63-3,1.33-3.32-.79-2.66-17.61-14.5-26.79-29.88-32.72-10.28-3.97-20.78-6.29-31.46-7.36l.14-1.33Zm54.68,16.68c3.31-.04,6.06-2.8,6.02-6.03-.04-3.27-2.77-5.97-6.06-5.98-3.25,0-6.09,2.82-6.03,6.02.06,3.27,2.85,6.02,6.07,5.99Zm-24.62-13c3.28-.03,5.99-2.77,5.96-6.05-.02-3.34-2.7-5.98-6.03-5.96-3.36.03-5.95,2.66-5.94,6.03.01,3.33,2.7,6.01,6.01,5.98Z"
           style="fill: #0400aa;"
           id="path2" />
        <path
           d="m348.46,397.3c3.34-.02,5.97-2.65,6.01-5.99.03-3.17-2.84-5.99-6.08-5.98-3.27.01-6.02,2.78-5.99,6.05.02,3.32,2.7,5.94,6.06,5.92Zm-248.88-36.79c-8.46,11.53-20.07,16.33-34.05,15.03-24.98-2.32-41.07-17.25-45.2-43.3-3.62-22.85,1.7-43.58,19-60.08,9.73-9.28,21.66-13.94,34.74-16.56,25.45-5.11,51.18-8.44,76.8-12.44,17.25-2.69,34.36-6.13,51.23-10.7.65-.18,1.28-.45,1.87-1-4.89.46-9.76,1.13-14.66,1.35-19.56.9-39.21,1.35-58.08-4.8-29.06-9.47-47.12-29.48-54.33-59.22-3.36-13.82-5.64-27.82-7.18-41.96-1.14-10.45-4.22-20.27-11.29-28.43-2.62-3.01-5.73-5.4-9.4-7.03-10.12-4.5-20.1-1.12-25.36,8.6-.49.89-.87,1.88-2.14,1.56-.92-.22-1.15-1.03-1.13-1.86.26-14.41,2.15-28.46,11.13-40.37,8.31-11,25.27-14.77,38.69-9.04,9.22,3.93,16.09,10.53,21.25,19.03,7.72,12.73,11.42,26.7,13.23,41.37,2.06,16.64,6.12,32.8,14.43,47.54,6.26,11.09,16.1,18.54,26.89,24.78,15.64,9.05,32.68,13.6,50.57,15.25,1.34.13,2.67.68,4.25.23-5.64-1.31-11.15-2.38-16.55-3.87-18.96-5.25-36.07-13.81-49.72-28.38-15.91-16.99-22.9-37.65-24.61-60.43-1.37-18.21,3.15-34.87,13.9-49.63,10.44-14.34,24.85-23.22,41.53-28.43,36.93-11.55,70.28-4.44,100.14,19.86,26.09,21.23,41.26,49.06,48.85,81.4.94,4.03,1.72,8.11,2.39,12.19.36,2.22.89,2.95,3,1.38,13.08-9.75,19.88-22.64,19.62-39.06-.1-5.77-1.01-11.4-4.01-16.49-2.99-5.07-8.52-7.94-13.28-6.88-7.36,1.63-9.99,7-6.71,13.8.46.97,1.41,1.89.24,2.87-1.07.89-2.05.03-2.97-.47-7.66-4.16-11.34-12.79-10.02-22.26,2.45-17.57,18.64-24.07,32.56-21.11,18.18,3.87,29.07,16.06,34.03,33.45,9.38,32.89-8.73,58.55-31.74,69.14-.52.24-1.02.54-1.41,1.03,8.3-1.71,15.81-5.05,22.06-10.88,6.05-5.64,10.22-12.76,14.86-19.49,4.94-7.15,8.9-14.9,13.58-22.21,12.83-20,28.7-36.94,50.34-47.56,16.12-7.92,33.09-11.02,50.87-6.81,7.9,1.88,15.47,4.8,22.23,9.41,21.66,14.77,26.36,42.96,10.9,65.02-5.12,7.31-11.74,13.01-19.28,17.69-.91.56-1.94,1.33-2.91.21-.94-1.09-.06-1.96.59-2.85,6.74-9.27,9.03-19.96,8.66-31.06-.37-11.16-10.79-20.99-22.9-23.62-14.3-3.1-24.78,2.16-32.91,13.64-5.11,7.22-7.43,15.62-10.4,23.76-2.91,7.96-5.95,15.88-9.55,23.56-7.8,16.68-20.88,27.91-37.16,35.78-3.14,1.52-6.48,2.65-10.26,4.17,6.88,2.15,13.38,2.54,19.95,2.45,10.81-.16,21-3.19,31.19-6.36,10.54-3.29,21.05-6.73,31.72-9.54,13.52-3.57,26.64-2.63,37.78,6.75,9.83,8.28,15.09,19.33,16.69,32.04,1.11,8.86-.08,17.51-3.28,25.86-.38,1.01-.61,2.18-2.02,2.22-1.49.05-1.57-1.19-1.93-2.2-5.08-14.61-15.27-21.71-31.08-22.14-9.41-.25-18.04,2.68-26.81,5.42-9.76,3.04-19.32,6.83-29.71,7.63-9.02.69-17.93.42-26.82-1.16-.75-.14-1.48-.5-2.47-.02,4.6,4.56,9.24,8.93,13.32,13.86,10.78,13.05,19.15,27.48,25.09,43.33,7.03,18.72,17.59,34.88,34.66,45.96,12.74,8.27,26.75,11.34,41.84,8.97.94-.15,1.97-.71,2.68.41.65,1.04.03,1.89-.53,2.71-7.33,10.9-17.45,17.23-30.6,18.33-14.17,1.18-27.05-3.21-39.48-9.44-17.02-8.52-29.07-22.02-38.61-38.12-5.83-9.81-9.35-20.64-13.88-31.03-5.87-13.45-10.91-27.33-20.25-38.99-1.77-2.22-3.54-4.45-5.53-6.95-.91,1.54-.74,2.91-.85,4.19-1.26,14.15-2.32,28.32-4.42,42.38-4.02,26.96-17.27,48.55-38.66,65.25-5.85,4.57-12.17,8.41-18.78,11.78-3.07,1.56-3.11,1.6-.51,3.61,14.51,11.2,30.85,17.76,49.16,19.23,9.46.76,18.95,1.39,28.42,2.1l-.22,2.98c-3.33-.18-6.12,2.35-6.28,5.7-.17,3.32,2.35,6.15,5.65,6.37l-.14,1.33c-8.42-.85-16.94-.92-25.55-.43-19.16,1.1-38.09.06-56.28-6.79-10.34-3.9-19.42-9.67-25.99-18.82-.96-1.34-1.85-1.35-3.24-.84-13.43,4.89-26.9,9.67-40.31,14.6-5.73,2.11-10.69,5.52-14.87,9.97-7.9,8.42-9.11,18.98-3.61,30.77.52,1.1,1.7,2.22.46,3.46s-2.47.17-3.58-.25c-15.9-6.05-25.27-21.17-25.1-39.54.14-14.86,8.33-24.64,19.66-32.48,12.06-8.35,25.82-12.53,40.04-15.35,3.58-.71,7.19-1.26,10.81-1.65,1.65-.18,1.71-.76,1.25-2.05-9.7-27.04-6.74-54.2-.75-81.39,1.65-7.5,3.89-14.84,5.92-22.34-14.08,14.76-31.32,24.52-49.97,32-20.36,8.17-41.64,12.64-63.32,15.62-11.76,1.62-23.66,1.1-35.37,2.88-10.14,1.55-20.22,3.32-29.48,8.22-17.07,9.04-26.02,26.59-22.38,44.59,2.01,9.95,9.15,20.62,21.95,21.62,6.06.47,11.49-1.2,16.53-4.45,1.1-.71,2.26-2.22,3.6-.91,1.5,1.47-.14,2.75-.93,3.83Zm-40.11,6.64c.1,3.36,2.77,5.91,6.13,5.84,3.34-.07,5.95-2.75,5.91-6.08-.03-3.2-2.9-5.96-6.14-5.89-3.29.07-5.99,2.88-5.9,6.13Zm458.42-252.43c3.57-.04,6.51-3.11,6.41-6.69-.09-3.55-3.2-6.46-6.79-6.34-3.45.1-6.23,3.04-6.2,6.55.03,3.67,2.92,6.52,6.58,6.48Zm-6.63,102.54c3.31-.03,6.01-2.77,5.95-6.05-.06-3.31-2.78-5.95-6.1-5.94-3.24.02-6.03,2.87-5.97,6.09.07,3.3,2.79,5.92,6.12,5.9Zm-4.25-132.44c3.62-.06,6.5-3.05,6.46-6.68-.05-3.43-3-6.39-6.42-6.44-3.49-.05-6.66,3.06-6.65,6.53.01,3.52,3.15,6.65,6.61,6.59Zm-9.57,264.26c.04-3.36-2.55-6.1-5.85-6.19-3.24-.09-6.06,2.62-6.15,5.89-.08,3.25,2.63,6.1,5.87,6.18,3.28.09,6.09-2.61,6.13-5.88Zm-1.97-156.03c.01-3.18-2.91-6.08-6.07-6.04-3.25.05-6.11,2.89-6.06,6.03.06,3.26,2.86,6.04,6.07,6.04,3.25,0,6.04-2.79,6.06-6.03Zm-16.66-118.58c3.58,0,6.62-3.06,6.56-6.59-.06-3.39-3.05-6.37-6.45-6.45-3.58-.09-6.57,2.85-6.59,6.49-.02,3.71,2.79,6.55,6.48,6.55Zm-8.7,269.83c.07-3.28-2.61-6.06-5.9-6.11-3.3-.06-6.03,2.59-6.09,5.91-.05,3.35,2.51,6.02,5.88,6.12,3.23.1,6.04-2.62,6.11-5.92Zm-12.97-139.11c3.21-.08,5.95-2.94,5.9-6.18-.04-3.2-2.97-6.04-6.14-5.95-3.26.1-5.98,2.94-5.89,6.18.08,3.26,2.93,6.02,6.13,5.95Zm-9.4-124.63c3.65-.05,6.55-3.01,6.47-6.62-.07-3.61-3.15-6.59-6.67-6.45-3.59.15-6.51,3.25-6.39,6.8.11,3.35,3.23,6.33,6.59,6.27Zm1.1,250.17c.03-3.37-2.56-5.96-5.96-5.96-3.42-.01-6.01,2.54-6.03,5.91-.01,3.29,2.71,6.04,5.98,6.05,3.3.01,5.99-2.68,6.01-6Zm-17.51-119.5c3.31-.11,5.93-2.87,5.85-6.17s-2.79-5.87-6.16-5.82c-3.27.04-5.99,2.87-5.88,6.11.11,3.25,2.99,5.99,6.19,5.88Zm-.25,96.24c0-3.3-2.7-6.06-5.96-6.08-3.22-.01-6.01,2.78-6.02,6.04,0,3.28,2.73,6.06,5.97,6.07,3.28,0,6.01-2.72,6.01-6.03Zm-1.72-213.62c.03-3.71-2.8-6.56-6.48-6.52-3.62.03-6.62,3.05-6.53,6.57.09,3.54,3.2,6.53,6.73,6.46,3.46-.07,6.25-2.96,6.28-6.51Zm-11.42,188.32c.19-3.26-2.38-6.14-5.66-6.34-3.3-.21-6.17,2.37-6.31,5.65-.14,3.43,2.26,6.11,5.64,6.31,3.34.19,6.15-2.29,6.33-5.62Zm-12.42-155.26c3.59-.15,6.53-3.24,6.41-6.76-.12-3.45-3.07-6.26-6.58-6.27-3.67-.01-6.53,2.9-6.47,6.57.07,3.62,3.14,6.61,6.64,6.46Zm-.69,78.32c.03-3.25-2.7-5.96-6.04-5.99-3.33-.02-6.01,2.61-6.06,5.95-.04,3.24,2.71,6.01,6.01,6.04,3.21.03,6.05-2.78,6.09-6Zm-.01,49.56c.05-3.18-2.8-6.04-6.03-6.04-3.26,0-6.06,2.8-6.05,6.02.02,3.27,2.8,6.07,6.02,6.07s6.01-2.79,6.06-6.05Zm-6.11-107.93c.1-3.61-2.79-6.62-6.41-6.69-3.65-.06-6.6,2.83-6.61,6.47-.01,3.63,2.92,6.57,6.55,6.57,3.44.01,6.38-2.87,6.47-6.35Zm-18.03,91.51c3.23-.08,5.96-2.96,5.88-6.19-.08-3.26-2.94-6-6.16-5.89-3.3.11-5.97,2.91-5.87,6.17.09,3.27,2.93,6,6.15,5.91Zm-.17-70.53c.01-3.26-2.68-6.08-5.93-6.21-3.16-.12-6.1,2.72-6.14,5.94-.05,3.27,2.67,6.12,5.89,6.18,3.25.05,6.17-2.74,6.18-5.91Zm-27.55-53.65c3.29-.06,5.89-2.8,5.84-6.15-.06-3.27-2.84-5.92-6.15-5.84-3.33.08-5.96,2.85-5.84,6.14.12,3.37,2.8,5.92,6.15,5.85Zm2.43-32.74c.18-3.33-2.31-6.12-5.65-6.34-3.2-.21-6.15,2.44-6.33,5.7-.19,3.24,2.43,6.14,5.69,6.31,3.36.17,6.11-2.3,6.29-5.67Zm-16.37,65.18c3.2-.05,6.03-2.94,5.98-6.1-.05-3.25-2.84-5.95-6.12-5.92-3.27.03-5.99,2.79-5.98,6.07.01,3.17,2.92,6,6.12,5.95Zm5.97,91.79c.06-3.24-2.71-6.01-6.02-6.01s-6.08,2.71-6.08,5.95c.01,3.25,2.81,6.07,6.03,6.06,3.29-.01,6-2.69,6.07-6Zm-8.69,34.5c3.37-.03,5.98-2.68,5.94-6.04-.03-3.3-2.73-5.97-6.04-5.96-3.29.02-5.96,2.74-5.93,6.06.02,3.36,2.68,5.97,6.03,5.94Zm2.61,25.07c0-3.18-2.93-6.12-6.04-6.07-3.21.05-6.01,2.86-6.06,6.08-.05,3.13,2.86,6.03,6.06,6.03,3.26.01,6.03-2.77,6.04-6.04Zm-11.67-230.05c.03-3.19-2.83-6.03-6.04-5.99-3.23.03-6.07,2.88-6.05,6.05.02,3.28,2.76,5.95,6.09,5.93,3.37-.03,5.98-2.62,6-5.99Zm-1.06,317.36c.03-3.25-2.74-6.05-5.98-6.03-3.35.01-5.98,2.63-6.02,5.98-.03,3.3,2.64,6.01,5.96,6.04,3.26.02,6.01-2.7,6.04-5.99Zm-6.23-119.22c1.32-15.61-4.3-29.17-14.7-40.85,4.8,15.46,2.45,30.34-3.07,45.11-4.59,12.28-8.8,24.69-13.09,37.07-1.95,5.65-2.46,11.55-2.47,17.5,0,.75-.26,1.75.51,2.19.85.49,1.41-.47,1.97-.91,2.96-2.3,5.84-4.7,8.35-7.5,13.46-14.99,20.81-32.73,22.5-52.61Zm-.8,62.02c.09-3.26-2.59-6.08-5.86-6.15-3.29-.07-6.04,2.55-6.13,5.87-.1,3.31,2.55,6.09,5.83,6.12,3.38.02,6.06-2.52,6.16-5.84Zm-15.37-192.38c-.09-1.19-.59-2.04-1.91-2.11-1.3-.06-2.04.65-2.11,1.89-.08,1.24.61,2.11,1.86,2.17,1.21.06,1.96-.68,2.16-1.95Zm-12.36-1.52c1.56-6.59,7.55-9.17,15.5-6.67-4.35-7.31-14.44-9.38-21.69-4.44-7.18,4.89-8.8,14.57-3.55,21.31,5.05,6.5,15.07,8.04,20.69,3.19-8.26-1.17-12.59-6.46-10.95-13.39Zm7.3,236.63c.06-3.27-2.64-6.09-5.89-6.17-3.22-.07-6.12,2.69-6.21,5.9-.09,3.23,2.66,6.06,5.93,6.1,3.38.03,6.1-2.54,6.17-5.83Zm-18.49-126.41c3.22.01,6.03-2.81,6.01-6.05-.02-3.31-2.73-5.97-6.08-5.95-3.31.02-6.12,2.82-6.02,6.01.11,3.4,2.72,5.97,6.09,5.99Zm-1.65,110.55c3.22-.06,6.11-2.99,6.01-6.1-.1-3.22-2.95-5.99-6.13-5.98-3.19.02-6.03,2.92-6.01,6.11.03,3.19,2.94,6.03,6.13,5.97Zm-4.44-73.2c3.27.01,5.97-2.72,5.96-6.03-.01-3.37-2.63-5.98-5.99-5.96-3.32.02-6.01,2.7-6,5.99,0,3.28,2.75,6,6.03,6Zm.26,31.82c.02-3.33-2.63-6.03-5.96-6.06-3.24-.03-6.12,2.77-6.13,5.95-.02,3.19,2.81,6.05,6.02,6.08,3.27.03,6.04-2.7,6.07-5.97Zm-18.22,44.54c.09-3.19-2.68-5.99-5.98-6.04-3.21-.05-6.12,2.79-6.12,5.97,0,3.12,2.62,5.88,5.74,6.02,3.48.17,6.26-2.43,6.36-5.95Zm-9.06-206.67c4.08.39,7.29,2.47,10.27,5.63-2.08-9-12.17-16.18-22.53-16.41-11.41-.25-21.49,7.05-24.48,17.7-2.91,10.35,1.7,21.42,11.18,26.85,10.08,5.77,22.45,4.22,30.46-4.09-9.77,2.27-16.1-.11-19.68-7.19-3.29-6.51-1.68-14.49,3.81-19.07,3.19-2.67,6.84-3.81,10.97-3.42Zm2.2,13.55c-.08-1.81-.99-3.18-2.94-3.27-2.07-.1-3.34,1.19-3.38,3.25-.03,1.94,1.17,3.15,3.1,3.21,1.95.06,3.02-1.12,3.22-3.19Zm-9.46,67.32c0-3.36-2.65-6.05-5.96-6.01-3.36.05-6.07,2.75-6.03,5.99.05,3.33,2.79,6.1,6,6.07,3.33-.03,5.97-2.7,5.99-6.05Zm-14.52,140.86c.07-3.15-2.81-6.1-5.99-6.13-3.22-.03-6.1,2.76-6.15,5.96-.05,3.23,2.69,6,5.99,6.07,3.27.07,6.08-2.62,6.15-5.9Zm-15.77-124.35c.08-3.25-2.62-6.1-5.86-6.18-3.21-.09-6.04,2.65-6.13,5.91-.08,3.34,2.51,6.02,5.87,6.09,3.39.06,6.03-2.45,6.12-5.82Zm-6.06,145.67c.07-3.28-2.59-6.07-5.88-6.15-3.28-.07-6.04,2.59-6.12,5.9s2.57,6.08,5.86,6.13c3.35.04,6.06-2.56,6.14-5.88Zm-6.05-180.05c.13-3.24-2.56-6.1-5.83-6.21-3.29-.11-6.1,2.51-6.23,5.81-.13,3.23,2.6,6.14,5.81,6.19,3.4.05,6.11-2.46,6.25-5.79Zm-28.12,46.75c.2-3.4-2.24-6.17-5.59-6.34-3.34-.17-6.16,2.33-6.35,5.62-.19,3.27,2.35,6.15,5.64,6.39,3.23.23,6.11-2.36,6.3-5.67Zm-9.35-47.03c3.27.03,6.08-2.74,6.07-5.97-.02-3.31-2.72-6-6.03-5.99-3.34.02-6.08,2.7-6.09,5.95-.01,3.23,2.77,5.99,6.05,6.01Zm-31.03-13.41c3.4,0,5.97-2.58,5.96-5.96-.02-3.38-2.67-6.06-5.96-6.04-3.31.03-5.99,2.73-5.98,6.04,0,3.4,2.58,5.97,5.98,5.96Zm3.36,66.23c.05-3.22-2.73-6.03-6.01-6.08-3.25-.04-6.08,2.72-6.11,5.95-.02,3.3,2.66,6.01,5.98,6.05,3.28.03,6.09-2.67,6.14-5.92Zm-28.32-87.19c3.23,0,6.02-2.8,6.01-6.04-.01-3.27-2.76-5.98-6.04-5.95-3.37.02-5.99,2.65-5.97,5.98.01,3.28,2.74,6.01,6,6.01Zm-6.87-35.83c.07-3.27-2.63-6.09-5.88-6.15-3.24-.06-6.09,2.68-6.13,5.92-.04,3.34,2.53,6.01,5.9,6.11,3.29.11,6.04-2.54,6.11-5.88Zm-12.03-24.11c3.17,0,6-2.89,5.99-6.12-.01-3.24-2.85-6.06-6.05-6.02-3.3.05-5.96,2.77-5.94,6.09.01,3.27,2.77,6.05,6,6.05Zm5.98,153.28c.1-3.27-2.61-6.13-5.85-6.2-3.31-.06-6.04,2.56-6.13,5.9-.09,3.35,2.46,6.05,5.82,6.13,3.33.09,6.06-2.5,6.16-5.83Zm-14.86-185.59c.18-3.31-2.35-6.15-5.66-6.35-3.29-.2-6.13,2.36-6.29,5.68-.17,3.34,2.34,6.18,5.63,6.37,3.21.2,6.15-2.45,6.32-5.7Zm-22.77,206.42c3.24-.09,5.91-2.9,5.87-6.2-.04-3.27-2.91-6.05-6.11-5.9-3.37.16-5.99,2.88-5.92,6.15.07,3.22,2.99,6.04,6.16,5.95Zm3.21-225.92c.06-3.29-2.6-6.02-5.93-6.09-3.32-.06-6.06,2.59-6.08,5.89-.03,3.41,2.52,6.03,5.89,6.08,3.32.05,6.06-2.58,6.12-5.88Zm-6.05,279.5c.05-3.26-2.68-6.02-5.99-6.07-3.29-.04-6.12,2.69-6.12,5.92s2.6,6,5.97,6.05c3.29.04,6.1-2.66,6.14-5.9Zm-9.48-27.73c.15-3.26-2.51-6.11-5.81-6.2-3.32-.1-6.11,2.46-6.27,5.75-.15,3.2,2.56,6.1,5.82,6.22,3.29.12,6.11-2.48,6.26-5.77Z"
           style="fill: #0400aa;"
           id="path4" />
      </g>
      <g
         id="g136">
        <path
           d="m303.78,135.72c-.09-1.19-.59-2.04-1.91-2.11-1.3-.06-2.04.65-2.11,1.89-.08,1.24.61,2.11,1.86,2.17,1.21.06,1.96-.68,2.16-1.95Z"
           style="fill: none; stroke: #000; stroke-linecap: round; stroke-linejoin: round; stroke-width: .26px;"
           id="path8" />
        <path
           d="m249.32,165.01c-.08-1.81-.99-3.18-2.94-3.27-2.07-.1-3.34,1.19-3.38,3.25-.03,1.94,1.17,3.15,3.1,3.21,1.95.06,3.02-1.12,3.22-3.19Z"
           style="fill: none; stroke: #000; stroke-linecap: round; stroke-linejoin: round; stroke-width: .26px;"
           id="path10" />
        <path
           d="m203.45,254.66c3.39.06,6.03-2.45,6.12-5.82.08-3.25-2.62-6.1-5.86-6.18-3.21-.09-6.04,2.65-6.13,5.91-.08,3.34,2.51,6.02,5.87,6.09Z"
           style="fill: none; stroke: #000; stroke-linecap: round; stroke-linejoin: round; stroke-width: .26px;"
           id="path12" />
        <path
           d="m457.14,205.19c3.21-.08,5.95-2.94,5.9-6.18-.04-3.2-2.97-6.04-6.14-5.95-3.26.1-5.98,2.94-5.89,6.18.08,3.26,2.93,6.02,6.13,5.95Z"
           style="fill: none; stroke: #000; stroke-linecap: round; stroke-linejoin: round; stroke-width: .26px;"
           id="path14" />
        <path
           d="m440.93,409.56c-.04-3.27-2.77-5.97-6.06-5.98-3.25,0-6.09,2.82-6.03,6.02.06,3.27,2.85,6.02,6.07,5.99,3.31-.04,6.06-2.8,6.02-6.03Z"
           style="fill: none; stroke: #000; stroke-linecap: round; stroke-linejoin: round; stroke-width: .26px;"
           id="path16" />
        <path
           d="m268.33,319.56c3.27.03,6.04-2.7,6.07-5.97.02-3.33-2.63-6.03-5.96-6.06-3.24-.03-6.12,2.77-6.13,5.95-.02,3.19,2.81,6.05,6.02,6.08Z"
           style="fill: none; stroke: #000; stroke-linecap: round; stroke-linejoin: round; stroke-width: .26px;"
           id="path18" />
        <path
           d="m169.34,261.21c.2-3.4-2.24-6.17-5.59-6.34-3.34-.17-6.16,2.33-6.35,5.62-.19,3.27,2.35,6.15,5.64,6.39,3.23.23,6.11-2.36,6.3-5.67Z"
           style="fill: none; stroke: #000; stroke-linecap: round; stroke-linejoin: round; stroke-width: .26px;"
           id="path20" />
        <path
           d="m256.18,358.13c.09-3.19-2.68-5.99-5.98-6.04-3.21-.05-6.12,2.79-6.12,5.97,0,3.12,2.62,5.88,5.74,6.02,3.48.17,6.26-2.43,6.36-5.95Z"
           style="fill: none; stroke: #000; stroke-linecap: round; stroke-linejoin: round; stroke-width: .26px;"
           id="path22" />
        <path
           d="m91.25,137.83c-3.24-.06-6.09,2.68-6.13,5.92-.04,3.34,2.53,6.01,5.9,6.11,3.29.11,6.04-2.54,6.11-5.88.07-3.27-2.63-6.09-5.88-6.15Z"
           style="fill: none; stroke: #000; stroke-linecap: round; stroke-linejoin: round; stroke-width: .26px;"
           id="path24" />
        <path
           d="m338.97,232.41c-3.31,0-6.08,2.71-6.08,5.95.01,3.25,2.81,6.07,6.03,6.06,3.29-.01,6-2.69,6.07-6,.06-3.24-2.71-6.01-6.02-6.01Z"
           style="fill: none; stroke: #000; stroke-linecap: round; stroke-linejoin: round; stroke-width: .26px;"
           id="path26" />
        <path
           d="m197.63,388.36c-3.28-.07-6.04,2.59-6.12,5.9s2.57,6.08,5.86,6.13c3.35.04,6.06-2.56,6.14-5.88.07-3.28-2.59-6.07-5.88-6.15Z"
           style="fill: none; stroke: #000; stroke-linecap: round; stroke-linejoin: round; stroke-width: .26px;"
           id="path28" />
        <path
           d="m348.46,397.3c3.34-.02,5.97-2.65,6.01-5.99.03-3.17-2.84-5.99-6.08-5.98-3.27.01-6.02,2.78-5.99,6.05.02,3.32,2.7,5.94,6.06,5.92Z"
           style="fill: none; stroke: #000; stroke-linecap: round; stroke-linejoin: round; stroke-width: .26px;"
           id="path30" />
        <path
           d="m110.01,173.77c-.01-3.27-2.76-5.98-6.04-5.95-3.37.02-5.99,2.65-5.97,5.98.01,3.28,2.74,6.01,6,6.01s6.02-2.8,6.01-6.04Z"
           style="fill: none; stroke: #000; stroke-linecap: round; stroke-linejoin: round; stroke-width: .26px;"
           id="path32" />
        <path
           d="m280.1,275.74c-.01-3.37-2.63-5.98-5.99-5.96-3.32.02-6.01,2.7-6,5.99,0,3.28,2.75,6,6.03,6,3.27.01,5.97-2.72,5.96-6.03Z"
           style="fill: none; stroke: #000; stroke-linecap: round; stroke-linejoin: round; stroke-width: .26px;"
           id="path34" />
        <path
           d="m358.8,108.04c-.06-3.27-2.84-5.92-6.15-5.84-3.33.08-5.96,2.85-5.84,6.14.12,3.37,2.8,5.92,6.15,5.85,3.29-.06,5.89-2.8,5.84-6.15Z"
           style="fill: none; stroke: #000; stroke-linecap: round; stroke-linejoin: round; stroke-width: .26px;"
           id="path36" />
        <path
           d="m345,140.53c-.05-3.25-2.84-5.95-6.12-5.92-3.27.03-5.99,2.79-5.98,6.07.01,3.17,2.92,6,6.12,5.95s6.03-2.94,5.98-6.1Z"
           style="fill: none; stroke: #000; stroke-linecap: round; stroke-linejoin: round; stroke-width: .26px;"
           id="path38" />
        <path
           d="m134.92,194.81c-.02-3.38-2.67-6.06-5.96-6.04-3.31.03-5.99,2.73-5.98,6.04,0,3.4,2.58,5.97,5.98,5.96,3.4,0,5.97-2.58,5.96-5.96Z"
           style="fill: none; stroke: #000; stroke-linecap: round; stroke-linejoin: round; stroke-width: .26px;"
           id="path40" />
        <path
           d="m312.99,333.94c3.38.02,6.06-2.52,6.16-5.84.09-3.26-2.59-6.08-5.86-6.15-3.29-.07-6.04,2.55-6.13,5.87-.1,3.31,2.55,6.09,5.83,6.12Z"
           style="fill: none; stroke: #000; stroke-linecap: round; stroke-linejoin: round; stroke-width: .26px;"
           id="path42" />
        <path
           d="m191.21,220.25c3.4.05,6.11-2.46,6.25-5.79.13-3.24-2.56-6.1-5.83-6.21-3.29-.11-6.1,2.51-6.23,5.81-.13,3.23,2.6,6.14,5.81,6.19Z"
           style="fill: none; stroke: #000; stroke-linecap: round; stroke-linejoin: round; stroke-width: .26px;"
           id="path44" />
        <path
           d="m511.26,217.26c3.31-.03,6.01-2.77,5.95-6.05-.06-3.31-2.78-5.95-6.1-5.94-3.24.02-6.03,2.87-5.97,6.09.07,3.3,2.79,5.92,6.12,5.9Z"
           style="fill: none; stroke: #000; stroke-linecap: round; stroke-linejoin: round; stroke-width: .26px;"
           id="path46" />
        <path
           d="m166.06,208.21c-.02-3.31-2.72-6-6.03-5.99-3.34.02-6.08,2.7-6.09,5.95-.01,3.23,2.77,5.99,6.05,6.01,3.27.03,6.08-2.74,6.07-5.97Z"
           style="fill: none; stroke: #000; stroke-linecap: round; stroke-linejoin: round; stroke-width: .26px;"
           id="path48" />
        <path
           d="m349.1,87.12c3.36.17,6.11-2.3,6.29-5.67.18-3.33-2.31-6.12-5.65-6.34-3.2-.21-6.15,2.44-6.33,5.7-.19,3.24,2.43,6.14,5.69,6.31Z"
           style="fill: none; stroke: #000; stroke-linecap: round; stroke-linejoin: round; stroke-width: .26px;"
           id="path50" />
        <path
           d="m321.24,73.93c3.37-.03,5.98-2.62,6-5.99.03-3.19-2.83-6.03-6.04-5.99-3.23.03-6.07,2.88-6.05,6.05.02,3.28,2.76,5.95,6.09,5.93Z"
           style="fill: none; stroke: #000; stroke-linecap: round; stroke-linejoin: round; stroke-width: .26px;"
           id="path52" />
        <path
           d="m442.88,324.77c-3.42-.01-6.01,2.54-6.03,5.91-.01,3.29,2.71,6.04,5.98,6.05,3.3.01,5.99-2.68,6.01-6,.03-3.37-2.56-5.96-5.96-5.96Z"
           style="fill: none; stroke: #000; stroke-linecap: round; stroke-linejoin: round; stroke-width: .26px;"
           id="path54" />
        <path
           d="m50.73,61.97c-3.32-.06-6.06,2.59-6.08,5.89-.03,3.41,2.52,6.03,5.89,6.08,3.32.05,6.06-2.58,6.12-5.88.06-3.29-2.6-6.02-5.93-6.09Z"
           style="fill: none; stroke: #000; stroke-linecap: round; stroke-linejoin: round; stroke-width: .26px;"
           id="path56" />
        <path
           d="m44.47,353.46c3.29.04,6.1-2.66,6.14-5.9.05-3.26-2.68-6.02-5.99-6.07-3.29-.04-6.12,2.69-6.12,5.92s2.6,6,5.97,6.05Z"
           style="fill: none; stroke: #000; stroke-linecap: round; stroke-linejoin: round; stroke-width: .26px;"
           id="path58" />
        <path
           d="m458.12,344.1c-.05,3.35,2.51,6.02,5.88,6.12,3.23.1,6.04-2.62,6.11-5.92.07-3.28-2.61-6.06-5.9-6.11-3.3-.06-6.03,2.59-6.09,5.91Z"
           style="fill: none; stroke: #000; stroke-linecap: round; stroke-linejoin: round; stroke-width: .26px;"
           id="path60" />
        <path
           d="m29.05,319.38c-.15,3.2,2.56,6.1,5.82,6.22,3.29.12,6.11-2.48,6.26-5.77.15-3.26-2.51-6.11-5.81-6.2-3.32-.1-6.11,2.46-6.27,5.75Z"
           style="fill: none; stroke: #000; stroke-linecap: round; stroke-linejoin: round; stroke-width: .26px;"
           id="path62" />
        <path
           d="m425.12,301.39c-3.22-.01-6.01,2.78-6.02,6.04,0,3.28,2.73,6.06,5.97,6.07,3.28,0,6.01-2.72,6.01-6.03s-2.7-6.06-5.96-6.08Z"
           style="fill: none; stroke: #000; stroke-linecap: round; stroke-linejoin: round; stroke-width: .26px;"
           id="path64" />
        <path
           d="m411.61,287.79c3.34.19,6.15-2.29,6.33-5.62.19-3.26-2.38-6.14-5.66-6.34-3.3-.21-6.17,2.37-6.31,5.65-.14,3.43,2.26,6.11,5.64,6.31Z"
           style="fill: none; stroke: #000; stroke-linecap: round; stroke-linejoin: round; stroke-width: .26px;"
           id="path66" />
        <path
           d="m79.1,272.85c-.09,3.35,2.46,6.05,5.82,6.13,3.33.09,6.06-2.5,6.16-5.83.1-3.27-2.61-6.13-5.85-6.2-3.31-.06-6.04,2.56-6.13,5.9Z"
           style="fill: none; stroke: #000; stroke-linecap: round; stroke-linejoin: round; stroke-width: .26px;"
           id="path68" />
        <path
           d="m126.18,272.92c3.28.03,6.09-2.67,6.14-5.92.05-3.22-2.73-6.03-6.01-6.08-3.25-.04-6.08,2.72-6.11,5.95-.02,3.3,2.66,6.01,5.98,6.05Z"
           style="fill: none; stroke: #000; stroke-linecap: round; stroke-linejoin: round; stroke-width: .26px;"
           id="path70" />
        <path
           d="m398.79,199.24c-3.33-.02-6.01,2.61-6.06,5.95-.04,3.24,2.71,6.01,6.01,6.04,3.21.03,6.05-2.78,6.09-6,.03-3.25-2.7-5.96-6.04-5.99Z"
           style="fill: none; stroke: #000; stroke-linecap: round; stroke-linejoin: round; stroke-width: .26px;"
           id="path72" />
        <path
           d="m386.56,232.18c-.08-3.26-2.94-6-6.16-5.89-3.3.11-5.97,2.91-5.87,6.17.09,3.27,2.93,6,6.15,5.91,3.23-.08,5.96-2.96,5.88-6.19Z"
           style="fill: none; stroke: #000; stroke-linecap: round; stroke-linejoin: round; stroke-width: .26px;"
           id="path74" />
        <path
           d="m380.86,386.84c-3.33-.18-6.12,2.35-6.28,5.7-.17,3.32,2.35,6.15,5.65,6.37,3.19.21,6.12-2.46,6.31-5.73.18-3.3-2.38-6.16-5.68-6.34Z"
           style="fill: none; stroke: #000; stroke-linecap: round; stroke-linejoin: round; stroke-width: .26px;"
           id="path76" />
        <path
           d="m320.14,391.29c3.26.02,6.01-2.7,6.04-5.99.03-3.25-2.74-6.05-5.98-6.03-3.35.01-5.98,2.63-6.02,5.98-.03,3.3,2.64,6.01,5.96,6.04Z"
           style="fill: none; stroke: #000; stroke-linecap: round; stroke-linejoin: round; stroke-width: .26px;"
           id="path78" />
        <path
           d="m286.24,238.37c-.02-3.31-2.73-5.97-6.08-5.95-3.31.02-6.12,2.82-6.02,6.01.11,3.4,2.72,5.97,6.09,5.99,3.22.01,6.03-2.81,6.01-6.05Z"
           style="fill: none; stroke: #000; stroke-linecap: round; stroke-linejoin: round; stroke-width: .26px;"
           id="path80" />
        <path
           d="m53.45,293.98c3.24-.09,5.91-2.9,5.87-6.2-.04-3.27-2.91-6.05-6.11-5.9-3.37.16-5.99,2.88-5.92,6.15.07,3.22,2.99,6.04,6.16,5.95Z"
           style="fill: none; stroke: #000; stroke-linecap: round; stroke-linejoin: round; stroke-width: .26px;"
           id="path82" />
        <path
           d="m91.09,113.75c-.01-3.24-2.85-6.06-6.05-6.02-3.3.05-5.96,2.77-5.94,6.09.01,3.27,2.77,6.05,6,6.05s6-2.89,5.99-6.12Z"
           style="fill: none; stroke: #000; stroke-linecap: round; stroke-linejoin: round; stroke-width: .26px;"
           id="path84" />
        <path
           d="m239.86,232.33c0-3.36-2.65-6.05-5.96-6.01-3.36.05-6.07,2.75-6.03,5.99.05,3.33,2.79,6.1,6,6.07,3.33-.03,5.97-2.7,5.99-6.05Z"
           style="fill: none; stroke: #000; stroke-linecap: round; stroke-linejoin: round; stroke-width: .26px;"
           id="path86" />
        <path
           d="m437.18,205.06c-.08-3.3-2.79-5.87-6.16-5.82-3.27.04-5.99,2.87-5.88,6.11.11,3.25,2.99,5.99,6.19,5.88,3.31-.11,5.93-2.87,5.85-6.17Z"
           style="fill: none; stroke: #000; stroke-linecap: round; stroke-linejoin: round; stroke-width: .26px;"
           id="path88" />
        <path
           d="m219.19,379.09c3.27.07,6.08-2.62,6.15-5.9.07-3.15-2.81-6.1-5.99-6.13-3.22-.03-6.1,2.76-6.15,5.96-.05,3.23,2.69,6,5.99,6.07Z"
           style="fill: none; stroke: #000; stroke-linecap: round; stroke-linejoin: round; stroke-width: .26px;"
           id="path90" />
        <path
           d="m65.6,372.99c3.34-.07,5.95-2.75,5.91-6.08-.03-3.2-2.9-5.96-6.14-5.89-3.29.07-5.99,2.88-5.9,6.13.1,3.36,2.77,5.91,6.13,5.84Z"
           style="fill: none; stroke: #000; stroke-linecap: round; stroke-linejoin: round; stroke-width: .26px;"
           id="path92" />
        <path
           d="m374.33,173.75c3.25.05,6.17-2.74,6.18-5.91.01-3.26-2.68-6.08-5.93-6.21-3.16-.12-6.1,2.72-6.14,5.94-.05,3.27,2.67,6.12,5.89,6.18Z"
           style="fill: none; stroke: #000; stroke-linecap: round; stroke-linejoin: round; stroke-width: .26px;"
           id="path94" />
        <path
           d="m292.55,376.66c3.38.03,6.1-2.54,6.17-5.83.06-3.27-2.64-6.09-5.89-6.17-3.22-.07-6.12,2.69-6.21,5.9-.09,3.23,2.66,6.06,5.93,6.1Z"
           style="fill: none; stroke: #000; stroke-linecap: round; stroke-linejoin: round; stroke-width: .26px;"
           id="path96" />
        <path
           d="m489.41,199.08c3.25,0,6.04-2.79,6.06-6.03.01-3.18-2.91-6.08-6.07-6.04-3.25.05-6.11,2.89-6.06,6.03.06,3.26,2.86,6.04,6.07,6.04Z"
           style="fill: none; stroke: #000; stroke-linecap: round; stroke-linejoin: round; stroke-width: .26px;"
           id="path98" />
        <path
           d="m497.44,349.08c.04-3.36-2.55-6.1-5.85-6.19-3.24-.09-6.06,2.62-6.15,5.89-.08,3.25,2.63,6.1,5.87,6.18,3.28.09,6.09-2.61,6.13-5.88Z"
           style="fill: none; stroke: #000; stroke-linecap: round; stroke-linejoin: round; stroke-width: .26px;"
           id="path100" />
        <path
           d="m64.27,86.89c-.17,3.34,2.34,6.18,5.63,6.37,3.21.2,6.15-2.45,6.32-5.7.18-3.31-2.35-6.15-5.66-6.35-3.29-.2-6.13,2.36-6.29,5.68Z"
           style="fill: none; stroke: #000; stroke-linecap: round; stroke-linejoin: round; stroke-width: .26px;"
           id="path102" />
        <path
           d="m416.25,396.54c-.02-3.34-2.7-5.98-6.03-5.96-3.36.03-5.95,2.66-5.94,6.03.01,3.33,2.7,6.01,6.01,5.98,3.28-.03,5.99-2.77,5.96-6.05Z"
           style="fill: none; stroke: #000; stroke-linecap: round; stroke-linejoin: round; stroke-width: .26px;"
           id="path104" />
        <path
           d="m338.91,297.99c0-3.18-2.93-6.12-6.04-6.07-3.21.05-6.01,2.86-6.06,6.08-.05,3.13,2.86,6.03,6.06,6.03,3.26.01,6.03-2.77,6.04-6.04Z"
           style="fill: none; stroke: #000; stroke-linecap: round; stroke-linejoin: round; stroke-width: .26px;"
           id="path106" />
        <path
           d="m342.24,266.88c-.03-3.3-2.73-5.97-6.04-5.96-3.29.02-5.96,2.74-5.93,6.06.02,3.36,2.68,5.97,6.03,5.94,3.37-.03,5.98-2.68,5.94-6.04Z"
           style="fill: none; stroke: #000; stroke-linecap: round; stroke-linejoin: round; stroke-width: .26px;"
           id="path108" />
        <path
           d="m398.79,248.75c-3.26,0-6.06,2.8-6.05,6.02.02,3.27,2.8,6.07,6.02,6.07s6.01-2.79,6.06-6.05c.05-3.18-2.8-6.04-6.03-6.04Z"
           style="fill: none; stroke: #000; stroke-linecap: round; stroke-linejoin: round; stroke-width: .26px;"
           id="path110" />
        <path
           d="m278.58,354.97c3.22-.06,6.11-2.99,6.01-6.1-.1-3.22-2.95-5.99-6.13-5.98-3.19.02-6.03,2.92-6.01,6.11.03,3.19,2.94,6.03,6.13,5.97Z"
           style="fill: none; stroke: #000; stroke-linecap: round; stroke-linejoin: round; stroke-width: .26px;"
           id="path112" />
        <path
           d="m517.89,114.72c3.57-.04,6.51-3.11,6.41-6.69-.09-3.55-3.2-6.46-6.79-6.34-3.45.1-6.23,3.04-6.2,6.55.03,3.67,2.92,6.52,6.58,6.48Z"
           style="fill: none; stroke: #000; stroke-linecap: round; stroke-linejoin: round; stroke-width: .26px;"
           id="path114" />
        <path
           d="m478.81,74.47c3.58,0,6.62-3.06,6.56-6.59-.06-3.39-3.05-6.37-6.45-6.45-3.58-.09-6.57,2.85-6.59,6.49-.02,3.71,2.79,6.55,6.48,6.55Z"
           style="fill: none; stroke: #000; stroke-linecap: round; stroke-linejoin: round; stroke-width: .26px;"
           id="path116" />
        <path
           d="m422.88,87.33c-3.62.03-6.62,3.05-6.53,6.57.09,3.54,3.2,6.53,6.73,6.46,3.46-.07,6.25-2.96,6.28-6.51.03-3.71-2.8-6.56-6.48-6.52Z"
           style="fill: none; stroke: #000; stroke-linecap: round; stroke-linejoin: round; stroke-width: .26px;"
           id="path118" />
        <path
           d="m392.3,140.17c-3.65-.06-6.6,2.83-6.61,6.47-.01,3.63,2.92,6.57,6.55,6.57,3.44.01,6.38-2.87,6.47-6.35.1-3.61-2.79-6.62-6.41-6.69Z"
           style="fill: none; stroke: #000; stroke-linecap: round; stroke-linejoin: round; stroke-width: .26px;"
           id="path120" />
        <path
           d="m398.88,120.45c.07,3.62,3.14,6.61,6.64,6.46,3.59-.15,6.53-3.24,6.41-6.76-.12-3.45-3.07-6.26-6.58-6.27-3.67-.01-6.53,2.9-6.47,6.57Z"
           style="fill: none; stroke: #000; stroke-linecap: round; stroke-linejoin: round; stroke-width: .26px;"
           id="path122" />
        <path
           d="m454.21,73.94c-.07-3.61-3.15-6.59-6.67-6.45-3.59.15-6.51,3.25-6.39,6.8.11,3.35,3.23,6.33,6.59,6.27,3.65-.05,6.55-3.01,6.47-6.62Z"
           style="fill: none; stroke: #000; stroke-linecap: round; stroke-linejoin: round; stroke-width: .26px;"
           id="path124" />
        <path
           d="m513.47,78.14c-.05-3.43-3-6.39-6.42-6.44-3.49-.05-6.66,3.06-6.65,6.53.01,3.52,3.15,6.65,6.61,6.59,3.62-.06,6.5-3.05,6.46-6.68Z"
           style="fill: none; stroke: #000; stroke-linecap: round; stroke-linejoin: round; stroke-width: .26px;"
           id="path126" />
        <path
           d="m306.92,127.53c-4.35-7.31-14.44-9.38-21.69-4.44-7.18,4.89-8.8,14.57-3.55,21.31,5.05,6.5,15.07,8.04,20.69,3.19-8.26-1.17-12.59-6.46-10.95-13.39,1.56-6.59,7.55-9.17,15.5-6.67Z"
           style="fill: none; stroke: #000; stroke-linecap: round; stroke-linejoin: round; stroke-width: .26px;"
           id="path128" />
        <path
           d="m252.02,181.14c-9.77,2.27-16.1-.11-19.68-7.19-3.29-6.51-1.68-14.49,3.81-19.07,3.19-2.67,6.84-3.81,10.97-3.42,4.08.39,7.29,2.47,10.27,5.63-2.08-9-12.17-16.18-22.53-16.41-11.41-.25-21.49,7.05-24.48,17.7-2.91,10.35,1.7,21.42,11.18,26.85,10.08,5.77,22.45,4.22,30.46-4.09Z"
           style="fill: none; stroke: #000; stroke-linecap: round; stroke-linejoin: round; stroke-width: .26px;"
           id="path130" />
        <path
           d="m305.25,225.23c4.8,15.46,2.45,30.34-3.07,45.11-4.59,12.28-8.8,24.69-13.09,37.07-1.95,5.65-2.46,11.55-2.47,17.5,0,.75-.26,1.75.51,2.19.85.49,1.41-.47,1.97-.91,2.96-2.3,5.84-4.7,8.35-7.5,13.46-14.99,20.81-32.73,22.5-52.61,1.32-15.61-4.3-29.17-14.7-40.85Z"
           style="fill: none; stroke: #000; stroke-linecap: round; stroke-linejoin: round; stroke-width: .26px;"
           id="path132" />
        <path
           d="m380.09,400.24c-8.42-.85-16.94-.92-25.55-.43-19.16,1.1-38.09.06-56.28-6.79-10.34-3.9-19.42-9.67-25.99-18.82-.96-1.34-1.85-1.35-3.24-.84-13.43,4.89-26.9,9.67-40.31,14.6-5.73,2.11-10.69,5.52-14.87,9.97-7.9,8.42-9.11,18.98-3.61,30.77.52,1.1,1.7,2.22.46,3.46s-2.47.17-3.58-.25c-15.9-6.05-25.27-21.17-25.1-39.54.14-14.86,8.33-24.64,19.66-32.48,12.06-8.35,25.82-12.53,40.04-15.35,3.58-.71,7.19-1.26,10.81-1.65,1.65-.18,1.71-.76,1.25-2.05-9.7-27.04-6.74-54.2-.75-81.39,1.65-7.5,3.89-14.84,5.92-22.34-14.08,14.76-31.32,24.52-49.97,32-20.36,8.17-41.64,12.64-63.32,15.62-11.76,1.62-23.66,1.1-35.37,2.88-10.14,1.55-20.22,3.32-29.48,8.22-17.07,9.04-26.02,26.59-22.38,44.59,2.01,9.95,9.15,20.62,21.95,21.62,6.06.47,11.49-1.2,16.53-4.45,1.1-.71,2.26-2.22,3.6-.91,1.5,1.47-.14,2.75-.93,3.83-8.46,11.53-20.07,16.33-34.05,15.03-24.98-2.32-41.07-17.25-45.2-43.3-3.62-22.85,1.7-43.58,19-60.08,9.73-9.28,21.66-13.94,34.74-16.56,25.45-5.11,51.18-8.44,76.8-12.44,17.25-2.69,34.36-6.13,51.23-10.7.65-.18,1.28-.45,1.87-1-4.89.46-9.76,1.13-14.66,1.35-19.56.9-39.21,1.35-58.08-4.8-29.06-9.47-47.12-29.48-54.33-59.22-3.36-13.82-5.64-27.82-7.18-41.96-1.14-10.45-4.22-20.27-11.29-28.43-2.62-3.01-5.73-5.4-9.4-7.03-10.12-4.5-20.1-1.12-25.36,8.6-.49.89-.87,1.88-2.14,1.56-.92-.22-1.15-1.03-1.13-1.86.26-14.41,2.15-28.46,11.13-40.37,8.31-11,25.27-14.77,38.69-9.04,9.22,3.93,16.09,10.53,21.25,19.03,7.72,12.73,11.42,26.7,13.23,41.37,2.06,16.64,6.12,32.8,14.43,47.54,6.26,11.09,16.1,18.54,26.89,24.78,15.64,9.05,32.68,13.6,50.57,15.25,1.34.13,2.67.68,4.25.23-5.64-1.31-11.15-2.38-16.55-3.87-18.96-5.25-36.07-13.81-49.72-28.38-15.91-16.99-22.9-37.65-24.61-60.43-1.37-18.21,3.15-34.87,13.9-49.63,10.44-14.34,24.85-23.22,41.53-28.43,36.93-11.55,70.28-4.44,100.14,19.86,26.09,21.23,41.26,49.06,48.85,81.4.94,4.03,1.72,8.11,2.39,12.19.36,2.22.89,2.95,3,1.38,13.08-9.75,19.88-22.64,19.62-39.06-.1-5.77-1.01-11.4-4.01-16.49-2.99-5.07-8.52-7.94-13.28-6.88-7.36,1.63-9.99,7-6.71,13.8.46.97,1.41,1.89.24,2.87-1.07.89-2.05.03-2.97-.47-7.66-4.16-11.34-12.79-10.02-22.26,2.45-17.57,18.64-24.07,32.56-21.11,18.18,3.87,29.07,16.06,34.03,33.45,9.38,32.89-8.73,58.55-31.74,69.14-.52.24-1.02.54-1.41,1.03,8.3-1.71,15.81-5.05,22.06-10.88,6.05-5.64,10.22-12.76,14.86-19.49,4.94-7.15,8.9-14.9,13.58-22.21,12.83-20,28.7-36.94,50.34-47.56,16.12-7.92,33.09-11.02,50.87-6.81,7.9,1.88,15.47,4.8,22.23,9.41,21.66,14.77,26.36,42.96,10.9,65.02-5.12,7.31-11.74,13.01-19.28,17.69-.91.56-1.94,1.33-2.91.21-.94-1.09-.06-1.96.59-2.85,6.74-9.27,9.03-19.96,8.66-31.06-.37-11.16-10.79-20.99-22.9-23.62-14.3-3.1-24.78,2.16-32.91,13.64-5.11,7.22-7.43,15.62-10.4,23.76-2.91,7.96-5.95,15.88-9.55,23.56-7.8,16.68-20.88,27.91-37.16,35.78-3.14,1.52-6.48,2.65-10.26,4.17,6.88,2.15,13.38,2.54,19.95,2.45,10.81-.16,21-3.19,31.19-6.36,10.54-3.29,21.05-6.73,31.72-9.54,13.52-3.57,26.64-2.63,37.78,6.75,9.83,8.28,15.09,19.33,16.69,32.04,1.11,8.86-.08,17.51-3.28,25.86-.38,1.01-.61,2.18-2.02,2.22-1.49.05-1.57-1.19-1.93-2.2-5.08-14.61-15.27-21.71-31.08-22.14-9.41-.25-18.04,2.68-26.81,5.42-9.76,3.04-19.32,6.83-29.71,7.63-9.02.69-17.93.42-26.82-1.16-.75-.14-1.48-.5-2.47-.02,4.6,4.56,9.24,8.93,13.32,13.86,10.78,13.05,19.15,27.48,25.09,43.33,7.03,18.72,17.59,34.88,34.66,45.96,12.74,8.27,26.75,11.34,41.84,8.97.94-.15,1.97-.71,2.68.41.65,1.04.03,1.89-.53,2.71-7.33,10.9-17.45,17.23-30.6,18.33-14.17,1.18-27.05-3.21-39.48-9.44-17.02-8.52-29.07-22.02-38.61-38.12-5.83-9.81-9.35-20.64-13.88-31.03-5.87-13.45-10.91-27.33-20.25-38.99-1.77-2.22-3.54-4.45-5.53-6.95-.91,1.54-.74,2.91-.85,4.19-1.26,14.15-2.32,28.32-4.42,42.38-4.02,26.96-17.27,48.55-38.66,65.25-5.85,4.57-12.17,8.41-18.78,11.78-3.07,1.56-3.11,1.6-.51,3.61,14.51,11.2,30.85,17.76,49.16,19.23,9.46.76,18.95,1.39,28.42,2.1,8.34.61,16.67,1.29,24.97,2.17,13.33,1.42,25.83,5.62,35.79,15.31,9.03,8.79,11.92,21.42,7.52,32.6-1.07,2.7-2.62,5.09-4.61,7.17-1.54,1.63-3,1.33-3.32-.79-2.66-17.61-14.5-26.79-29.88-32.72-10.28-3.97-20.78-6.29-31.46-7.36Z"
           style="fill: none; stroke: #000; stroke-linecap: round; stroke-linejoin: round; stroke-width: .26px;"
           id="path134" />
      </g>
    </g>
  </g>
  <text
     transform="translate(207.18 472.32)"
     style="font-family: MyriadPro-Regular, 'Myriad Pro'; font-size: 17px;"
     id="text159"><tspan
       x="0"
       y="0"
       style="letter-spacing: 0em;"
       id="tspan141">t</tspan><tspan
       x="5.52"
       y="0"
       id="tspan143">empl</tspan><tspan
       x="41.9"
       y="0"
       style="letter-spacing: 0em;"
       id="tspan145">a</tspan><tspan
       x="50.03"
       y="0"
       style="letter-spacing: 0em;"
       id="tspan147">t</tspan><tspan
       x="55.56"
       y="0"
       id="tspan149">esa</tspan><tspan
       x="79"
       y="0"
       style="letter-spacing: 0em;"
       id="tspan151">r</tspan><tspan
       x="84.39"
       y="0"
       style="letter-spacing: 0em;"
       id="tspan153">ea.</tspan><tspan
       x="104.62"
       y="0"
       style="letter-spacing: 0em;"
       id="tspan155">c</tspan><tspan
       x="112.13"
       y="0"
       id="tspan157">om</tspan></text>
  <metadata
     id="metadata270">
    <rdf:RDF>
      <cc:License
         rdf:about="http://creativecommons.org/licenses/by-nc/4.0/">
        <cc:permits
           rdf:resource="http://creativecommons.org/ns#Reproduction" />
        <cc:permits
           rdf:resource="http://creativecommons.org/ns#Distribution" />
        <cc:requires
           rdf:resource="http://creativecommons.org/ns#Notice" />
        <cc:requires
           rdf:resource="http://creativecommons.org/ns#Attribution" />
        <cc:prohibits
           rdf:resource="http://creativecommons.org/ns#CommercialUse" />
        <cc:permits
           rdf:resource="http://creativecommons.org/ns#DerivativeWorks" />
      </cc:License>
      <cc:Work
         rdf:about="">
        <cc:license
           rdf:resource="http://creativecommons.org/licenses/by-nc/4.0/" />
        <dc:title>Adorable Octopus SVG Cut File: Free &amp; Ready for Download</dc:title>
        <dc:rights>
          <cc:Agent>
            <dc:title>https://www.templatesarea.com/license-agreement/</dc:title>
          </cc:Agent>
        </dc:rights>
        <dc:creator>
          <cc:Agent>
            <dc:title>templatesarea.com</dc:title>
          </cc:Agent>
        </dc:creator>
        <dc:publisher>
          <cc:Agent>
            <dc:title>templatesarea.com</dc:title>
          </cc:Agent>
        </dc:publisher>
        <dc:description>Add charm to your projects with our free Octopus SVG vector file. Perfect for Cricut, vinyl cutters, and more. Download now!</dc:description>
      </cc:Work>
    </rdf:RDF>
  </metadata>
</svg>
